HIERARCHY
ROOT Hips
{
	OFFSET 0.000000 0.000000 0.000000
	CHANNELS 6 Xposition Yposition Zposition Zrotation Yrotation Xrotation 
	JOINT LHipJoint
	{
		OFFSET 0.000000 0.000000 0.000000
		CHANNELS 3 Zrotation Yrotation Xrotation
		JOINT LeftUpLeg
		{
			OFFSET 8.178360 -10.767780 5.035740
			CHANNELS 3 Zrotation Yrotation Xrotation
			JOINT LeftLeg
			{
				OFFSET 14.688660 -40.356780 0.000000
				CHANNELS 3 Zrotation Yrotation Xrotation
				JOINT LeftFoot
				{
					OFFSET 15.373200 -42.237540 0.000000
					CHANNELS 3 Zrotation Yrotation Xrotation
					JOINT LeftToeBase
					{
						OFFSET 0.945840 -2.598660 13.935300
						CHANNELS 3 Zrotation Yrotation Xrotation
						End Site
						{
							OFFSET 0.000000 0.000000 0.000000
						}
					}
				}
			}
		}
	}
	JOINT RHipJoint
	{
		OFFSET 0.000000 0.000000 0.000000
		CHANNELS 3 Zrotation Yrotation Xrotation
		JOINT RightUpLeg
		{
			OFFSET -7.833120 -10.767780 5.035740
			CHANNELS 3 Zrotation Yrotation Xrotation
			JOINT RightLeg
			{
				OFFSET -15.255180 -41.913300 0.000000
				CHANNELS 3 Zrotation Yrotation Xrotation
				JOINT RightFoot
				{
					OFFSET -15.409560 -42.337380 0.000000
					CHANNELS 3 Zrotation Yrotation Xrotation
					JOINT RightToeBase
					{
						OFFSET -0.988380 -2.715540 14.178900
						CHANNELS 3 Zrotation Yrotation Xrotation
						End Site
						{
							OFFSET 0.000000 0.000000 0.000000
						}
					}
				}
			}
		}
	}
	JOINT LowerBack
	{
		OFFSET 0.000000 0.000000 0.000000
		CHANNELS 3 Zrotation Yrotation Xrotation
		JOINT Spine
		{
			OFFSET 0.169620 12.213540 -1.160280
			CHANNELS 3 Zrotation Yrotation Xrotation
			JOINT Spine1
			{
				OFFSET 0.340320 12.293100 -0.256500
				CHANNELS 3 Zrotation Yrotation Xrotation
				JOINT Neck
				{
					OFFSET 0.000000 0.000000 0.000000
					CHANNELS 3 Zrotation Yrotation Xrotation
					JOINT Neck1
					{
						OFFSET -0.325020 10.477440 1.032120
						CHANNELS 3 Zrotation Yrotation Xrotation
						JOINT Head
						{
							OFFSET 0.624420 10.568160 -0.743820
							CHANNELS 3 Zrotation Yrotation Xrotation
							End Site
							{
								OFFSET 0.000000 0.000000 0.000000
							}
						}
					}
				}
				JOINT LeftShoulder
				{
					OFFSET 0.000000 0.000000 0.000000
					CHANNELS 3 Zrotation Yrotation Xrotation
					JOINT LeftArm
					{
						OFFSET 20.174460 7.205340 -1.867260
						CHANNELS 3 Zrotation Yrotation Xrotation
						JOINT LeftForeArm
						{
							OFFSET 29.898000 -0.000000 -0.000000
							CHANNELS 3 Zrotation Yrotation Xrotation
							JOINT LeftHand
							{
								OFFSET 20.901360 -0.000000 -0.000000
								CHANNELS 3 Zrotation Yrotation Xrotation
								JOINT LeftFingerBase
								{
									OFFSET 0.000000 0.000000 0.000000
									CHANNELS 3 Zrotation Yrotation Xrotation
									JOINT LeftHandIndex1
									{
										OFFSET 4.291560 -0.000000 -0.000000
										CHANNELS 3 Zrotation Yrotation Xrotation
										End Site
										{
											OFFSET 0.000000 0.000000 0.000000
										}
									}
								}
								JOINT LThumb
								{
									OFFSET 0.000000 0.000000 0.000000
									CHANNELS 3 Zrotation Yrotation Xrotation
									End Site
									{
										OFFSET 0.000000 0.000000 0.000000
									}
								}
							}
						}
					}
				}
				JOINT RightShoulder
				{
					OFFSET 0.000000 0.000000 0.000000
					CHANNELS 3 Zrotation Yrotation Xrotation
					JOINT RightArm
					{
						OFFSET -18.819600 8.244300 -2.427900
						CHANNELS 3 Zrotation Yrotation Xrotation
						JOINT RightForeArm
						{
							OFFSET -31.451400 -0.000000 -0.000000
							CHANNELS 3 Zrotation Yrotation Xrotation
							JOINT RightHand
							{
								OFFSET -20.665020 -0.000000 -0.000000
								CHANNELS 3 Zrotation Yrotation Xrotation
								JOINT RightFingerBase
								{
									OFFSET 0.000000 0.000000 0.000000
									CHANNELS 3 Zrotation Yrotation Xrotation
									JOINT RightHandIndex1
									{
										OFFSET -3.735180 -0.000000 -0.000000
										CHANNELS 3 Zrotation Yrotation Xrotation
										End Site
										{
											OFFSET 0.000000 0.000000 0.000000
										}
									}
								}
								JOINT RThumb
								{
									OFFSET 0.000000 0.000000 0.000000
									CHANNELS 3 Zrotation Yrotation Xrotation
									End Site
									{
										OFFSET 0.000000 0.000000 0.000000
									}
								}
							}
						}
					}
				}
			}
		}
	}
}
MOTION
Frames:	6
Frame Time:	0.0333333
-65.429514 107.257806 91.457436 22.102983 -89.053745 -20.265404 -3.883628 1.265146 2.413927 -16.012831 -7.600229 -10.458847 -0.066743 7.545820 22.463439 0.745236 -4.537120 -1.498336 0.002300 -0.312300 -0.858100 0.900801 -0.869254 0.891498 20.134152 4.625014 -13.430085 -2.424407 -10.191162 30.968904 -0.231197 -0.851378 -5.690090 -0.254900 -3.248300 8.970800 1.093031 1.380282 6.474637 2.126817 1.939987 0.326834 -0.047485 0.991747 -4.580549 -6.933410 3.633722 -20.299440 2.672383 6.118836 21.422886 3.516700 1.589700 14.665300 -6.393157 -1.528947 -1.586394 -87.791139 0.452529 34.761066 14.066342 -19.522804 -2.999186 -1.262310 -2.318633 8.455512 15.956450 21.456422 7.014600 -7.125000 0.000000 0.000000 -13.130500 54.369800 -3.063200 5.612245 1.026031 -1.432233 83.648585 -2.343139 14.745954 -17.849293 26.098497 -4.452397 0.353756 -0.125462 6.666788 -14.735392 8.289960 -2.247400 7.125000 0.000000 0.000000 8.499900 -21.360400 4.872900 
-65.457804 107.301150 91.444794 16.527415 -88.826121 -14.704172 -3.932401 1.239602 2.402361 -15.929193 -7.869804 -10.367146 -0.064564 7.546088 22.477522 0.745687 -4.559241 -1.443843 0.000400 -0.130700 -0.359100 0.860014 -0.910324 0.899499 20.240971 4.960490 -13.216601 -2.406241 -10.178386 30.908834 -0.134221 -1.376521 -6.076214 -0.249400 -3.213200 8.872800 1.274556 1.408830 6.338769 2.053031 2.007598 0.337855 -0.300866 1.006319 -4.446491 -7.164214 3.433710 -20.330467 2.905297 5.899060 21.430216 3.644300 1.501700 14.674400 -6.423005 -1.546875 -1.568595 -87.390893 -0.161618 33.938871 13.897449 -19.268484 -2.903099 -1.403786 -2.342650 9.191761 16.996596 22.383909 7.800000 -7.125000 0.000000 0.000000 -12.428200 55.562200 -3.258200 5.601855 1.065978 -1.423497 83.747660 -2.381966 14.299697 -17.618026 25.808356 -4.341832 0.352912 -0.130030 6.524445 -14.651920 8.359287 -2.254200 7.125000 0.000000 0.000000 8.558100 -21.287600 4.921300 
-65.483094 107.284296 91.418304 26.306554 -88.316431 -24.609644 -3.871020 1.319268 2.413275 -16.455567 -8.117154 -10.093850 -0.093519 7.487062 22.304228 0.760722 -4.814031 -1.256862 0.001100 0.211100 0.580000 0.942646 -0.842521 0.893296 19.697450 4.610387 -13.239815 -2.441905 -10.224270 31.070983 -0.123267 -1.457959 -6.207729 -0.225700 -3.057900 8.439900 0.804583 1.434918 6.395865 1.948785 1.984134 0.372521 -0.175655 1.016488 -4.416808 -7.113548 3.380253 -20.174497 2.700096 5.817934 21.195684 3.523900 1.464200 14.534800 -6.439808 -1.576635 -1.548079 -87.091137 -0.713849 33.446860 13.778456 -19.098215 -2.838082 -1.591972 -2.343349 8.739918 19.094038 22.809911 9.003900 -7.125000 0.000000 0.000000 -10.234700 56.462700 -2.897600 5.611489 1.093365 -1.412118 83.700279 -2.394321 13.747882 -17.253817 25.327359 -4.166948 0.343194 -0.122013 6.883722 -14.314767 7.960442 -2.094400 7.125000 0.000000 0.000000 8.822300 -21.718400 4.989500 
-65.499948 107.280078 91.458642 25.918508 -88.129374 -24.194496 -3.884632 1.326061 2.422936 -16.534458 -8.140617 -10.008965 -0.120212 7.428323 22.135340 0.764761 -4.877681 -1.171678 0.000300 0.113100 0.310700 0.932608 -0.837907 0.891640 19.604053 4.263075 -13.447885 -2.477206 -10.275923 31.239077 -0.172314 -1.240875 -6.238067 -0.237400 -3.135700 8.656800 0.828989 1.453109 6.318687 1.895247 2.012486 0.355204 -0.276087 1.027169 -4.388010 -7.130510 3.366858 -20.196795 2.716240 5.799604 21.272193 3.540400 1.449700 14.576400 -6.445848 -1.604378 -1.535140 -86.805374 -1.168964 32.227338 13.774720 -19.078420 -2.823762 -1.552353 -2.354479 9.042073 18.468485 23.009409 8.749900 -7.125000 0.000000 0.000000 -11.052600 56.536800 -3.152900 5.613869 1.110913 -1.411256 83.800892 -2.550058 13.136565 -16.916971 24.881904 -4.005779 0.350102 -0.137549 7.466182 -14.571109 8.051349 -2.160900 7.125000 0.000000 0.000000 8.626600 -21.603400 4.899100 
-65.554128 107.265630 91.400850 26.806783 -87.899483 -25.083795 -3.886568 1.344561 2.423194 -16.657311 -8.365958 -9.861994 -0.134123 7.402565 22.061270 0.754175 -4.820358 -1.184164 0.000100 0.077400 0.212800 0.942994 -0.834009 0.890773 19.538620 4.466198 -13.325628 -2.482459 -10.290025 31.280698 -0.071154 -1.741767 -6.419911 -0.231700 -3.098100 8.552000 0.700358 1.479121 6.198582 1.809532 2.033541 0.362240 -0.336778 1.038561 -4.296616 -7.065237 3.292654 -19.958035 2.634618 5.658807 21.001256 3.464800 1.409100 14.397100 -6.463161 -1.633204 -1.510782 -86.369996 -1.702873 31.294268 13.668684 -18.916450 -2.768421 -1.536144 -2.313165 8.780734 18.351119 22.511970 8.523800 -7.125000 0.000000 0.000000 -10.913300 55.963700 -2.960400 5.624441 1.131155 -1.399787 83.877640 -2.530255 12.425148 -16.371312 24.156956 -3.756494 0.335077 -0.151780 8.615837 -14.251575 7.994747 -2.098900 7.125000 0.000000 0.000000 8.866900 -21.665400 5.026200 
-65.636004 107.233722 91.352082 21.592883 -87.839575 -19.968753 -3.921285 1.320365 2.429808 -16.456066 -8.262474 -9.854341 -0.107367 7.451746 22.209322 0.774163 -4.914599 -1.296240 0.002300 -0.309400 -0.850000 0.892900 -0.870139 0.895398 19.819303 4.353841 -13.137613 -2.464122 -10.260607 31.187545 -0.066689 -1.749985 -6.367936 -0.259300 -3.276100 9.048500 0.854054 1.513030 6.144827 1.804019 2.102021 0.377416 -0.420745 1.058311 -4.228424 -7.205249 3.176363 -19.846734 2.820664 5.514027 20.999209 3.556500 1.358200 14.365900 -6.460028 -1.634340 -1.504225 -85.966326 -1.908034 31.204368 13.745974 -19.049627 -2.804267 -1.498441 -2.372263 7.506639 18.378181 22.767835 8.629700 -7.125000 0.000000 0.000000 -11.006900 56.254200 -3.064100 5.624957 1.146641 -1.391162 83.883345 -2.646765 11.885619 -15.941261 23.592026 -3.568841 0.314824 -0.180549 9.274044 -13.839698 8.512665 -2.171500 7.125000 0.000000 0.000000 9.153900 -21.127900 5.305900 
